<svg xmlns="http://www.w3.org/2000/svg" width="1100" height="620" viewBox="0 0 1100 620"><rect width="100%" height="100%" fill="white"/><style>text{font-family:"Microsoft YaHei","SimHei",sans-serif}</style><text x="550" y="48" font-size="28" fill="#8064D8" font-weight="bold" text-anchor="middle">不同案例类别的准确率</text><line x1="60" y1="510.0" x2="1060" y2="510.0" stroke="#EEEEEE"/><text x="52" y="515.0" font-size="14" fill="#777777" font-weight="normal" text-anchor="end">85%</text><line x1="60" y1="369.9999999999999" x2="1060" y2="369.9999999999999" stroke="#EEEEEE"/><text x="52" y="374.9999999999999" font-size="14" fill="#777777" font-weight="normal" text-anchor="end">90%</text><line x1="60" y1="230.00000000000006" x2="1060" y2="230.00000000000006" stroke="#EEEEEE"/><text x="52" y="235.00000000000006" font-size="14" fill="#777777" font-weight="normal" text-anchor="end">95%</text><line x1="60" y1="89.99999999999989" x2="1060" y2="89.99999999999989" stroke="#EEEEEE"/><text x="52" y="94.99999999999989" font-size="14" fill="#777777" font-weight="normal" text-anchor="end">100%</text><rect x="80" y="1290.0" width="80" height="-780.0" rx="4" fill="#8064D8"/><text x="120.0" y="1280.0" font-size="16" fill="#333333" font-weight="bold" text-anchor="middle">57.1%</text><text x="120.0" y="545" font-size="15" fill="#333333" font-weight="normal" text-anchor="middle">骚扰原始</text><text x="120.0" y="570" font-size="13" fill="#777777" font-weight="normal" text-anchor="middle">n=21</text><rect x="205" y="490.0" width="80" height="20.0" rx="4" fill="#8064D8"/><text x="245.0" y="480.00000000000006" font-size="16" fill="#333333" font-weight="bold" text-anchor="middle">85.7%</text><text x="245.0" y="545" font-size="15" fill="#333333" font-weight="normal" text-anchor="middle">歧视原始</text><text x="245.0" y="570" font-size="13" fill="#777777" font-weight="normal" text-anchor="middle">n=21</text><rect x="330" y="90.0" width="80" height="420.0" rx="4" fill="#2FA66A"/><text x="370.0" y="79.99999999999989" font-size="16" fill="#333333" font-weight="bold" text-anchor="middle">100.0%</text><text x="370.0" y="545" font-size="15" fill="#333333" font-weight="normal" text-anchor="middle">无风险</text><text x="370.0" y="570" font-size="13" fill="#777777" font-weight="normal" text-anchor="middle">n=8</text><rect x="455" y="463.3" width="80" height="46.7" rx="4" fill="#9A7DE0"/><text x="495.0" y="453.3333333333332" font-size="16" fill="#333333" font-weight="bold" text-anchor="middle">86.7%</text><text x="495.0" y="545" font-size="15" fill="#333333" font-weight="normal" text-anchor="middle">同义改写</text><text x="495.0" y="570" font-size="13" fill="#777777" font-weight="normal" text-anchor="middle">n=15</text><rect x="580" y="556.7" width="80" height="-46.7" rx="4" fill="#9A7DE0"/><text x="620.0" y="546.6666666666665" font-size="16" fill="#333333" font-weight="bold" text-anchor="middle">83.3%</text><text x="620.0" y="545" font-size="15" fill="#333333" font-weight="normal" text-anchor="middle">细节扰动</text><text x="620.0" y="570" font-size="13" fill="#777777" font-weight="normal" text-anchor="middle">n=12</text><rect x="705" y="930.0" width="80" height="-420.0" rx="4" fill="#9A7DE0"/><text x="745.0" y="920.0000000000001" font-size="16" fill="#333333" font-weight="bold" text-anchor="middle">70.0%</text><text x="745.0" y="545" font-size="15" fill="#333333" font-weight="normal" text-anchor="middle">干扰句</text><text x="745.0" y="570" font-size="13" fill="#777777" font-weight="normal" text-anchor="middle">n=10</text><rect x="830" y="790.0" width="80" height="-280.0" rx="4" fill="#9A7DE0"/><text x="870.0" y="780.0" font-size="16" fill="#333333" font-weight="bold" text-anchor="middle">75.0%</text><text x="870.0" y="545" font-size="15" fill="#333333" font-weight="normal" text-anchor="middle">要件边界</text><text x="870.0" y="570" font-size="13" fill="#777777" font-weight="normal" text-anchor="middle">n=8</text><rect x="955" y="90.0" width="80" height="420.0" rx="4" fill="#9A7DE0"/><text x="995.0" y="79.99999999999989" font-size="16" fill="#333333" font-weight="bold" text-anchor="middle">100.0%</text><text x="995.0" y="545" font-size="15" fill="#333333" font-weight="normal" text-anchor="middle">长文本</text><text x="995.0" y="570" font-size="13" fill="#777777" font-weight="normal" text-anchor="middle">n=5</text></svg>